<?xml version="1.0" encoding="UTF-8" standalone="no"?>
<svg
   version="1.1"
   width="841.88977pt"
   height="595.27557pt"
   id="svg6"
   viewBox="0 0 841.88977 595.27557"
   sodipodi:docname="aiqfome-seeklogo.cdr"
   xmlns:inkscape="http://www.inkscape.org/namespaces/inkscape"
   xmlns:sodipodi="http://sodipodi.sourceforge.net/DTD/sodipodi-0.dtd"
   xmlns="http://www.w3.org/2000/svg"
   xmlns:svg="http://www.w3.org/2000/svg">
  <defs
     id="defs10" />
  <sodipodi:namedview
     id="namedview8"
     pagecolor="#ffffff"
     bordercolor="#000000"
     borderopacity="0.25"
     inkscape:showpageshadow="2"
     inkscape:pageopacity="0.0"
     inkscape:pagecheckerboard="0"
     inkscape:deskcolor="#d1d1d1"
     inkscape:document-units="pt" />
  <path
     d="m 286.3499,103.3529 c -0.3117,-2.1042 -0.3117,-2.1042 -0.3117,-2.1042 -17.9787,0.2807 -47.7997,-0.4122 -81.3587,9.1698 -29.2673,8.3566 -61.756,24.6635 -85.7836,49.1405 -47.1799,48.0619 -62.1891,127.1637 -53.8193,191.0378 5.9293,45.2485 28.8429,106.0375 60.9644,130.7475 12.8408,9.8781 26.1374,12.8002 37.1862,9.9984 11.0489,-2.8019 19.85,-11.3279 29.545,-16.1067 28.7254,-14.1591 43.1656,11.2185 62.0612,20.1472 10.7105,5.0611 21.893,4.2193 30.9684,-1.2147 9.0755,-5.4341 16.0443,-15.4607 26.3684,-20.6321 10.3239,-5.1712 24.0033,-5.4875 37.3689,1.9205 34.1047,18.9029 56.6799,77.8454 88.5488,37.1917 9.3787,-11.9639 19.9598,-32.7652 28.1361,-57.4745 15.9623,-48.2392 23.4567,-111.7874 18.2162,-162.4437 -3.1303,-30.2607 -10.8016,-59.9946 -14.7292,-76.4124 -20.1449,2.4298 -24.356,1.4087 -36.9665,-15.1165 -4.144,3.2233 -10.002,8.6102 -21.0319,10.2428 -9.7106,1.4372 -23.471,-0.0911 -32.5644,-6.3749 -10.5747,-7.3074 -15.263,-21.6707 -17.9463,-28.3629 -6.5224,1.7476 -16.9961,5.6571 -29.4991,0.2164 -10.9333,-4.7577 -23.5166,-16.7598 -28.2049,-27.2729 -5.3746,-12.0518 -0.4952,-22.3128 1.7252,-28.5618 -10.3292,-4.3038 -17.2125,-6.527 -18.8732,-17.7353 z m 42.054,159.9875 c 13.9529,0 25.264,20.5108 25.264,45.8121 0,25.3014 -11.3111,45.8122 -25.264,45.8122 -13.9528,0 -25.264,-20.5108 -25.264,-45.8122 0,-25.3013 11.3112,-45.8121 25.264,-45.8121 z m -171.0149,0 c 13.9528,0 25.264,20.5108 25.264,45.8121 0,25.3014 -11.3112,45.8122 -25.264,45.8122 -13.9529,0 -25.264,-20.5108 -25.264,-45.8122 0,-25.3013 11.3111,-45.8121 25.264,-45.8121 z m 299.3621,127.4411 c 4.4151,-24.0999 6.8662,-50.3338 6.3522,-71.0898 -0.5139,-20.7563 -3.9929,-36.0347 -7.7488,-48.6948 -15.1039,-50.9119 -28.0458,-34.9984 -48.431,-32.1119 -8.9351,1.265 -20.7959,0.7907 -29.296,-2.6094 -18.8351,-7.534 -17.9435,-25.76 -32.1027,-32.3006 -15.1282,-6.988 -45.3049,-3.1304 -59.287,-26.0538 -11.6318,-19.0703 -8.0924,-42.1084 -21.1172,-49.1333 -15.8484,-8.5477 -55.2767,2.4245 -77.1484,12.4956 -65.6681,30.2375 -94.5486,90.9978 -98.4326,161.6296 -2.6109,47.4813 7.5781,81.6357 29.4615,121.3927 13.9642,25.3697 26.1728,42.9416 50.785,30.3709 8.4564,-4.3192 16.3675,-11.139 25.9607,-14.2307 9.5931,-3.0916 20.8686,-2.455 30.7347,2.3643 16.8762,8.2437 26.4153,26.2535 46.6212,23.5056 16.051,-2.1827 20.3429,-18.6423 39.2344,-25.7461 11.0025,-4.1373 26.0205,-4.2675 37.5305,-1.0592 26.081,7.2704 35.7778,34.2775 51.7355,45.3927 7.9247,5.52 15.6256,4.775 21.9174,-0.6175 14.9047,-12.7741 28.5143,-67.7596 33.2306,-93.5043 z"
     style="fill:#EDEDED;fill-rule:evenodd"
     id="path2" />
  <path
     d="m 616.7084,161.2012 c 0,-25.4062 -14.4071,-38.1092 -43.2215,-38.1092 -15.3367,0 -26.8004,4.1826 -32.5322,10.8439 -5.732,6.6614 -8.2106,12.8581 -8.6754,20.1392 -0.1548,2.6335 0.6196,3.563 6.1966,4.3375 l 13.9426,2.3237 c 4.6473,0.9295 6.971,0.155 6.971,-2.3237 0,-3.8729 4.1827,-7.9006 13.3227,-7.9006 8.8302,0 13.3229,4.9572 13.3229,15.0268 v 8.3654 h -0.3098 l -1.8591,-1.5491 c -2.6336,-2.0139 -9.9145,-4.8025 -17.5054,-4.8025 -11.7736,0 -20.9136,3.4082 -27.5751,10.3795 -6.6612,6.9711 -9.9145,15.1816 -9.9145,24.6315 0,9.7596 2.9434,18.125 8.9851,25.0963 6.0418,6.9713 14.4071,10.3793 25.4061,10.3793 11.9286,0 19.3645,-4.1827 23.0826,-7.5907 3.0982,-2.6336 3.2532,-3.4083 3.7178,-4.0279 h 1.0845 l 0.1548,0.4646 c 0.7747,2.3238 2.3238,5.1124 8.5204,8.3656 3.2532,1.7041 6.8163,2.4786 10.9991,2.4786 3.8729,0 6.9711,-0.1548 8.9851,-0.6197 5.1121,-0.7746 7.126,-3.0982 7.126,-8.5203 v -16.421 c 0,-1.3943 -0.6196,-1.8591 -2.0139,-1.7041 l -2.3238,0.1548 c -3.8728,0 -5.8866,-1.7039 -5.8866,-5.1121 z m -28.1947,41.5174 c 0,7.2809 -4.9573,12.8579 -14.4072,12.8579 -8.5203,0 -14.0973,-4.9574 -14.0973,-12.8579 0,-7.9008 5.4221,-12.7033 14.0973,-12.7033 9.4499,0 14.4072,5.732 14.4072,12.7033 z m 87.3724,-28.1947 h 6.0416 c 4.8025,0 7.5909,-3.2533 7.5909,-7.591 v -11.3087 c 0,-4.3377 -2.7884,-7.5909 -7.5909,-7.5909 h -42.9115 c -4.8024,0 -7.591,3.2532 -7.591,7.5909 v 11.3087 c 0,4.3377 2.7886,7.591 7.591,7.591 h 6.0416 v 35.4756 h -6.0416 c -4.8024,0 -7.591,3.2532 -7.591,7.5909 v 11.3088 c 0,4.3377 2.7886,7.5909 7.591,7.5909 h 42.9115 c 4.8025,0 7.5909,-3.2532 7.5909,-7.5909 v -11.3088 c 0,-4.3377 -2.7884,-7.5909 -7.5909,-7.5909 h -6.0416 z M 659.62,140.4423 c 5.4219,0 10.2243,-1.8589 14.2521,-5.7318 4.0279,-3.8728 6.0419,-8.5203 6.0419,-13.9423 0,-5.2672 -2.014,-9.7597 -6.0419,-13.6325 -4.0278,-3.8731 -8.8302,-5.8868 -14.2521,-5.8868 -5.577,0 -10.3793,2.0137 -14.4072,5.8868 -4.0279,3.8728 -6.0418,8.3653 -6.0418,13.6325 0,5.422 2.0139,10.0695 5.8868,13.9423 4.0279,3.8729 8.8302,5.7318 14.5622,5.7318 z m 95.5827,38.7291 c 0,19.3643 -4.3375,27.1102 -14.407,27.1102 -8.8302,0 -13.3229,-8.9852 -13.3229,-27.1102 0,-19.3645 4.4927,-29.1242 13.3229,-29.1242 10.0695,0 14.407,8.6752 14.407,29.1242 z m -2.6336,68.7825 c 0,4.9573 2.9434,7.7457 7.7459,7.7457 h 15.3367 c 4.8023,0 7.7457,-2.7884 7.7457,-7.7457 V 130.063 c 0,-4.3375 -2.0139,-5.7318 -6.9713,-5.7318 h -15.1816 c -5.577,0 -6.8163,1.2393 -6.8163,5.7318 v 1.5493 h -0.9294 l -0.4649,-0.9296 c -1.2392,-2.4786 -6.8162,-7.9006 -19.9841,-7.9006 -21.5333,0 -35.4756,19.2095 -35.4756,56.3893 0,36.4051 12.5482,54.6851 37.7993,54.6851 7.436,0 13.4778,-3.408 14.717,-4.8023 0.7747,-0.7747 1.2393,-1.3943 1.5492,-1.8591 h 0.9294 z m -78.774,93.1743 c 4.8024,0 7.5909,-3.0982 7.5909,-7.5909 v -11.3088 c 0,-4.4925 -2.7889,-7.5909 -7.5909,-7.5909 H 657.529 v -3.408 c 0,-9.7597 3.0982,-13.0129 13.6325,-13.0129 1.859,0 4.1966,0.0749 7.1261,0.6196 3.7335,0.6945 6.5065,-1.5493 6.5065,-5.4221 v -13.3227 c 0,-5.1122 -1.8623,-7.7243 -7.4359,-8.5204 -3.1016,-0.4428 -6.5065,-0.7745 -10.0695,-0.7745 -15.1819,0 -25.7589,3.3696 -31.7578,10.0695 -5.9297,6.6229 -8.8302,16.4213 -8.8302,29.5888 v 4.1827 h -1.3941 c -3.8727,0 -6.1966,3.2536 -6.1966,7.4359 v 11.6188 c 0,4.1823 2.3236,7.4359 6.1966,7.4359 h 1.3941 v 35.4756 c 0,4.3373 2.7886,7.591 7.5909,7.591 h 15.6465 c 4.8023,0 7.5909,-3.2533 7.5909,-7.591 V 341.1282 Z M 780.8418,328.735 c 0,-39.8133 -13.9425,-57.9384 -44.7706,-57.9384 -30.8283,0 -44.7707,18.1251 -44.7707,57.9384 0,39.6583 13.7876,56.699 44.7707,56.699 30.9831,0 44.7706,-17.0407 44.7706,-56.699 z m -58.4032,0 c 0,-21.5333 4.1827,-30.5183 13.6326,-30.5183 9.4498,0 13.6325,8.985 13.6325,30.5183 0,20.6038 -3.8729,29.279 -13.6325,29.279 -9.7597,0 -13.6326,-8.6752 -13.6326,-29.279 z m -156,195.696 c 4.8023,0 7.5909,-3.2533 7.5909,-7.591 v -62.4308 c 0,-9.3323 4.3375,-15.9563 13.0129,-15.9563 8.2106,0 12.3933,6.0161 12.3933,18.2284 V 516.84 c 0,4.3375 2.7883,7.591 7.5907,7.591 h 15.6464 c 4.8026,0 7.591,-3.2533 7.591,-7.591 v -64.3157 c 0,-9.4955 5.2671,-14.0714 12.858,-14.0714 8.2106,0 12.3933,6.0161 12.3933,18.2284 V 516.84 c 0,4.3375 2.7884,7.591 7.5907,7.591 h 15.6465 c 4.8025,0 7.5909,-3.2533 7.5909,-7.591 v -66.9493 c 0,-11.128 -2.8742,-20.3563 -8.5204,-27.7041 -5.6634,-7.3702 -13.7873,-11.1538 -24.6315,-11.1538 -9.14,0 -16.4211,3.0982 -20.6038,7.4359 -4.1827,4.3377 -5.7318,7.1261 -6.8162,10.0695 -5.7318,-11.6186 -15.3367,-17.5054 -28.6594,-17.5054 -20.4488,0 -25.4061,15.6465 -25.5611,16.4209 h -0.9295 v -7.5907 c 0,-5.1123 -2.6338,-7.5909 -7.9007,-7.5909 h -11.9285 c -4.9571,0 -7.5909,3.0984 -7.5909,7.5909 v 96.977 c 0,4.3375 2.7886,7.591 7.5909,7.591 z m 175.0545,-26.1808 c -9.4498,0 -13.7873,-7.1261 -14.4069,-24.4767 h 48.7983 c 4.3377,0 5.5251,-1.2371 5.422,-4.3375 l -0.1548,-4.6475 c -0.6552,-19.6732 -4.1145,-33.3962 -10.2245,-41.5174 -6.1286,-8.1457 -16.1111,-12.2383 -30.2085,-12.2383 -30.8283,0 -44.7707,18.1251 -44.7707,57.9384 0,39.6583 13.7876,56.699 44.7707,56.699 11.9284,0 21.3437,-2.9818 28.0397,-8.985 6.7818,-6.0802 10.7287,-13.6278 11.7736,-22.4627 0.659,-5.5723 -1.389,-7.636 -6.3516,-8.2106 l -14.717,-1.7041 c -3.4166,-0.3956 -5.1122,0.6197 -5.1122,3.2532 0,5.7318 -4.3377,10.6892 -12.8581,10.6892 z M 727.7058,454.564 c 1.3941,-13.4775 5.577,-19.2095 13.0129,-19.2095 8.3654,0 12.8579,6.3516 13.6325,19.2095 z"
     style="fill:#EDEDED;fill-rule:evenodd"
     id="path4" />
</svg>
